<mxfile host="app.diagrams.net" modified="2024-02-12T15:08:37.144Z" agent="Mozilla/5.0 (Windows NT 10.0; Win64; x64) AppleWebKit/537.36 (KHTML, like Gecko) Chrome/121.0.0.0 Safari/537.36 Edg/121.0.0.0" etag="wQHM1G7w4-6xK96p0CJl" version="23.1.2" type="device">
  <diagram name="Page-1" id="c4acf3e9-155e-7222-9cf6-157b1a14988f">
    <mxGraphModel dx="1865" dy="773" grid="0" gridSize="10" guides="1" tooltips="1" connect="1" arrows="1" fold="1" page="1" pageScale="1" pageWidth="3300" pageHeight="2339" background="none" math="0" shadow="0">
      <root>
        <mxCell id="0" />
        <mxCell id="1" parent="0" />
        <mxCell id="aZU8dN17WNUPZfyEzKtG-1" value="&amp;lt;&amp;lt;Interface&amp;gt;&amp;gt;&lt;br&gt;Movable" style="swimlane;fontStyle=1;align=center;verticalAlign=top;childLayout=stackLayout;horizontal=1;startSize=42;horizontalStack=0;resizeParent=1;resizeParentMax=0;resizeLast=0;collapsible=1;marginBottom=0;whiteSpace=wrap;html=1;" parent="1" vertex="1">
          <mxGeometry x="830" y="447" width="168" height="109" as="geometry" />
        </mxCell>
        <mxCell id="aZU8dN17WNUPZfyEzKtG-3" value="" style="line;strokeWidth=1;fillColor=none;align=left;verticalAlign=middle;spacingTop=-1;spacingLeft=3;spacingRight=3;rotatable=0;labelPosition=right;points=[];portConstraint=eastwest;strokeColor=inherit;" parent="aZU8dN17WNUPZfyEzKtG-1" vertex="1">
          <mxGeometry y="42" width="168" height="8" as="geometry" />
        </mxCell>
        <mxCell id="aZU8dN17WNUPZfyEzKtG-4" value="&lt;font style=&quot;font-size: 12px;&quot;&gt;~ move(): void&lt;br&gt;&lt;span style=&quot;color: rgb(32, 33, 34); font-family: sans-serif; background-color: rgb(255, 255, 255);&quot;&gt;~ turnLeft(): void&lt;br&gt;&lt;/span&gt;~ turnRight(): void&lt;/font&gt;" style="text;strokeColor=none;fillColor=none;align=left;verticalAlign=top;spacingLeft=4;spacingRight=4;overflow=hidden;rotatable=0;points=[[0,0.5],[1,0.5]];portConstraint=eastwest;whiteSpace=wrap;html=1;" parent="aZU8dN17WNUPZfyEzKtG-1" vertex="1">
          <mxGeometry y="50" width="168" height="59" as="geometry" />
        </mxCell>
        <mxCell id="aZU8dN17WNUPZfyEzKtG-7" value="&lt;p style=&quot;margin:0px;margin-top:4px;text-align:center;&quot;&gt;&lt;b&gt;&lt;i&gt;Vehicle {abstract}&lt;/i&gt;&lt;/b&gt;&lt;/p&gt;&lt;hr size=&quot;1&quot;&gt;&lt;p style=&quot;margin:0px;margin-left:4px;&quot;&gt;# nrDoors: int&lt;/p&gt;&lt;p style=&quot;margin:0px;margin-left:4px;&quot;&gt;# enginePower: double&lt;/p&gt;&lt;p style=&quot;margin:0px;margin-left:4px;&quot;&gt;# currentSpeed: double&lt;/p&gt;&lt;p style=&quot;margin:0px;margin-left:4px;&quot;&gt;# color: Color&lt;/p&gt;&lt;p style=&quot;margin:0px;margin-left:4px;&quot;&gt;# modelName: String&lt;/p&gt;&lt;p style=&quot;margin:0px;margin-left:4px;&quot;&gt;# xPos: double&lt;/p&gt;&lt;p style=&quot;margin:0px;margin-left:4px;&quot;&gt;# yPos: double&lt;/p&gt;&lt;p style=&quot;margin:0px;margin-left:4px;&quot;&gt;# direction: int[]&lt;/p&gt;&lt;hr size=&quot;1&quot;&gt;&lt;p style=&quot;margin:0px;margin-left:4px;&quot;&gt;+ Vehicle(int, double, Color, String)&lt;/p&gt;&lt;p style=&quot;margin:0px;margin-left:4px;&quot;&gt;# startEngine(): void&lt;/p&gt;&lt;p style=&quot;margin:0px;margin-left:4px;&quot;&gt;# stopEngine(): void&lt;/p&gt;&lt;p style=&quot;margin:0px;margin-left:4px;&quot;&gt;&lt;i&gt;+ speedFactor(): double&lt;/i&gt;&lt;/p&gt;&lt;p style=&quot;margin:0px;margin-left:4px;&quot;&gt;- incrementSpeed(double): void&lt;/p&gt;&lt;p style=&quot;margin:0px;margin-left:4px;&quot;&gt;- decrementSpeed(double): void&lt;/p&gt;&lt;p style=&quot;margin:0px;margin-left:4px;&quot;&gt;+ move(): void&lt;/p&gt;&lt;p style=&quot;margin:0px;margin-left:4px;&quot;&gt;+ turnLeft(): void&lt;/p&gt;&lt;p style=&quot;margin:0px;margin-left:4px;&quot;&gt;+ turnRight: void&lt;/p&gt;&lt;p style=&quot;margin:0px;margin-left:4px;&quot;&gt;# gas(double): void&lt;/p&gt;&lt;p style=&quot;margin:0px;margin-left:4px;&quot;&gt;# break(double): void&lt;/p&gt;" style="verticalAlign=top;align=left;overflow=fill;fontSize=12;fontFamily=Helvetica;html=1;whiteSpace=wrap;" parent="1" vertex="1">
          <mxGeometry x="1137" y="447" width="204" height="326" as="geometry" />
        </mxCell>
        <mxCell id="aZU8dN17WNUPZfyEzKtG-8" value="&lt;p style=&quot;margin:0px;margin-top:4px;text-align:center;&quot;&gt;&lt;b&gt;&lt;i&gt;Car {abstract}&lt;/i&gt;&lt;/b&gt;&lt;/p&gt;&lt;hr size=&quot;1&quot;&gt;&lt;p style=&quot;margin:0px;margin-left:4px;&quot;&gt;&lt;br&gt;&lt;/p&gt;&lt;hr size=&quot;1&quot;&gt;&lt;p style=&quot;margin:0px;margin-left:4px;&quot;&gt;+ Car(int, doble, Color, String)&lt;/p&gt;" style="verticalAlign=top;align=left;overflow=fill;fontSize=12;fontFamily=Helvetica;html=1;whiteSpace=wrap;" parent="1" vertex="1">
          <mxGeometry x="795" y="785" width="181" height="82" as="geometry" />
        </mxCell>
        <mxCell id="aZU8dN17WNUPZfyEzKtG-9" value="&lt;p style=&quot;margin:0px;margin-top:4px;text-align:center;&quot;&gt;&lt;b&gt;&lt;i&gt;Truck {abstract}&lt;/i&gt;&lt;/b&gt;&lt;/p&gt;&lt;hr size=&quot;1&quot;&gt;&lt;p style=&quot;margin:0px;margin-left:4px;&quot;&gt;# platform: Platform&lt;/p&gt;&lt;hr size=&quot;1&quot;&gt;&lt;p style=&quot;margin:0px;margin-left:4px;&quot;&gt;+ Truck(int, double, Color, String, Platform)&lt;/p&gt;&lt;p style=&quot;margin:0px;margin-left:4px;&quot;&gt;+ gas(double): void&lt;/p&gt;&lt;p style=&quot;margin:0px;margin-left:4px;&quot;&gt;+ speedFactor(): double&lt;/p&gt;&lt;p style=&quot;margin:0px;margin-left:4px;&quot;&gt;+ startEngine(): void&lt;/p&gt;&lt;p style=&quot;margin:0px;margin-left:4px;&quot;&gt;&lt;br&gt;&lt;/p&gt;&lt;p style=&quot;margin:0px;margin-left:4px;&quot;&gt;&lt;br&gt;&lt;/p&gt;" style="verticalAlign=top;align=left;overflow=fill;fontSize=12;fontFamily=Helvetica;html=1;whiteSpace=wrap;" parent="1" vertex="1">
          <mxGeometry x="1398" y="785" width="238" height="120" as="geometry" />
        </mxCell>
        <mxCell id="aZU8dN17WNUPZfyEzKtG-12" value="" style="endArrow=block;dashed=1;endFill=0;endSize=12;html=1;rounded=0;entryX=1.01;entryY=-0.157;entryDx=0;entryDy=0;entryPerimeter=0;" parent="1" target="aZU8dN17WNUPZfyEzKtG-4" edge="1">
          <mxGeometry width="160" relative="1" as="geometry">
            <mxPoint x="1135" y="487" as="sourcePoint" />
            <mxPoint x="1003" y="487" as="targetPoint" />
          </mxGeometry>
        </mxCell>
        <mxCell id="aZU8dN17WNUPZfyEzKtG-13" value="Extends" style="endArrow=block;endSize=16;endFill=0;html=1;rounded=0;entryX=-0.013;entryY=0.689;entryDx=0;entryDy=0;entryPerimeter=0;exitX=0.5;exitY=0;exitDx=0;exitDy=0;" parent="1" source="aZU8dN17WNUPZfyEzKtG-8" target="aZU8dN17WNUPZfyEzKtG-7" edge="1">
          <mxGeometry width="160" relative="1" as="geometry">
            <mxPoint x="1342" y="691" as="sourcePoint" />
            <mxPoint x="1502" y="691" as="targetPoint" />
            <Array as="points">
              <mxPoint x="886" y="672" />
            </Array>
          </mxGeometry>
        </mxCell>
        <mxCell id="aZU8dN17WNUPZfyEzKtG-14" value="Extends" style="endArrow=block;endSize=16;endFill=0;html=1;rounded=0;entryX=1.005;entryY=0.703;entryDx=0;entryDy=0;entryPerimeter=0;exitX=0.5;exitY=0;exitDx=0;exitDy=0;" parent="1" source="aZU8dN17WNUPZfyEzKtG-9" target="aZU8dN17WNUPZfyEzKtG-7" edge="1">
          <mxGeometry width="160" relative="1" as="geometry">
            <mxPoint x="1342" y="691" as="sourcePoint" />
            <mxPoint x="1502" y="691" as="targetPoint" />
            <Array as="points">
              <mxPoint x="1517" y="676" />
            </Array>
          </mxGeometry>
        </mxCell>
        <mxCell id="aZU8dN17WNUPZfyEzKtG-15" value="&lt;p style=&quot;margin:0px;margin-top:4px;text-align:center;&quot;&gt;&lt;b&gt;Volvo240&lt;/b&gt;&lt;/p&gt;&lt;hr size=&quot;1&quot;&gt;&lt;p style=&quot;margin:0px;margin-left:4px;&quot;&gt;- &lt;u&gt;trimFactor&lt;/u&gt;: double&lt;/p&gt;&lt;hr size=&quot;1&quot;&gt;&lt;p style=&quot;margin:0px;margin-left:4px;&quot;&gt;# Volvo240()&lt;/p&gt;&lt;p style=&quot;margin:0px;margin-left:4px;&quot;&gt;+ speedFactor(): double&lt;/p&gt;" style="verticalAlign=top;align=left;overflow=fill;fontSize=12;fontFamily=Helvetica;html=1;whiteSpace=wrap;" parent="1" vertex="1">
          <mxGeometry x="543" y="651" width="160" height="90" as="geometry" />
        </mxCell>
        <mxCell id="aZU8dN17WNUPZfyEzKtG-16" value="&lt;p style=&quot;margin:0px;margin-top:4px;text-align:center;&quot;&gt;&lt;b&gt;Saab95&lt;/b&gt;&lt;/p&gt;&lt;hr size=&quot;1&quot;&gt;&lt;p style=&quot;margin:0px;margin-left:4px;&quot;&gt;- turboOn: boolean&lt;/p&gt;&lt;hr size=&quot;1&quot;&gt;&lt;p style=&quot;margin:0px;margin-left:4px;&quot;&gt;# Saab95()&lt;/p&gt;&lt;p style=&quot;margin:0px;margin-left:4px;&quot;&gt;+ speedFactor(): double&lt;/p&gt;&lt;p style=&quot;margin:0px;margin-left:4px;&quot;&gt;- setTurboOn(): void&lt;/p&gt;&lt;p style=&quot;margin:0px;margin-left:4px;&quot;&gt;- setTurboOff(): void&lt;/p&gt;&lt;p style=&quot;margin:0px;margin-left:4px;&quot;&gt;+ speedFactor(): double&lt;/p&gt;" style="verticalAlign=top;align=left;overflow=fill;fontSize=12;fontFamily=Helvetica;html=1;whiteSpace=wrap;" parent="1" vertex="1">
          <mxGeometry x="543" y="930" width="160" height="143" as="geometry" />
        </mxCell>
        <mxCell id="aZU8dN17WNUPZfyEzKtG-17" value="Extends" style="endArrow=block;endSize=16;endFill=0;html=1;rounded=0;exitX=0.5;exitY=0;exitDx=0;exitDy=0;entryX=0;entryY=0.75;entryDx=0;entryDy=0;" parent="1" source="aZU8dN17WNUPZfyEzKtG-16" target="aZU8dN17WNUPZfyEzKtG-8" edge="1">
          <mxGeometry width="160" relative="1" as="geometry">
            <mxPoint x="858" y="854" as="sourcePoint" />
            <mxPoint x="1018" y="854" as="targetPoint" />
            <Array as="points">
              <mxPoint x="623" y="847" />
            </Array>
          </mxGeometry>
        </mxCell>
        <mxCell id="aZU8dN17WNUPZfyEzKtG-18" value="Extends" style="endArrow=block;endSize=16;endFill=0;html=1;rounded=0;exitX=0.5;exitY=1;exitDx=0;exitDy=0;entryX=0;entryY=0.25;entryDx=0;entryDy=0;" parent="1" source="aZU8dN17WNUPZfyEzKtG-15" target="aZU8dN17WNUPZfyEzKtG-8" edge="1">
          <mxGeometry width="160" relative="1" as="geometry">
            <mxPoint x="858" y="854" as="sourcePoint" />
            <mxPoint x="1018" y="854" as="targetPoint" />
            <Array as="points">
              <mxPoint x="623" y="806" />
            </Array>
          </mxGeometry>
        </mxCell>
        <mxCell id="aZU8dN17WNUPZfyEzKtG-19" value="&amp;lt;&amp;lt;Interface&amp;gt;&amp;gt;&lt;br&gt;Platform" style="swimlane;fontStyle=1;align=center;verticalAlign=top;childLayout=stackLayout;horizontal=1;startSize=42;horizontalStack=0;resizeParent=1;resizeParentMax=0;resizeLast=0;collapsible=1;marginBottom=0;whiteSpace=wrap;html=1;" parent="1" vertex="1">
          <mxGeometry x="1701" y="778" width="168" height="123" as="geometry" />
        </mxCell>
        <mxCell id="aZU8dN17WNUPZfyEzKtG-20" value="" style="line;strokeWidth=1;fillColor=none;align=left;verticalAlign=middle;spacingTop=-1;spacingLeft=3;spacingRight=3;rotatable=0;labelPosition=right;points=[];portConstraint=eastwest;strokeColor=inherit;" parent="aZU8dN17WNUPZfyEzKtG-19" vertex="1">
          <mxGeometry y="42" width="168" height="8" as="geometry" />
        </mxCell>
        <mxCell id="aZU8dN17WNUPZfyEzKtG-21" value="&lt;font style=&quot;font-size: 12px;&quot;&gt;~ raisePlatform(): void&lt;br&gt;&lt;span style=&quot;color: rgb(32, 33, 34); font-family: sans-serif; background-color: rgb(255, 255, 255);&quot;&gt;~ lowerPlatform(): void&lt;br&gt;&lt;/span&gt;~ platformInUse(): boolean&lt;br&gt;~ getPlatformLevel(): double&lt;br&gt;&lt;/font&gt;" style="text;strokeColor=none;fillColor=none;align=left;verticalAlign=top;spacingLeft=4;spacingRight=4;overflow=hidden;rotatable=0;points=[[0,0.5],[1,0.5]];portConstraint=eastwest;whiteSpace=wrap;html=1;" parent="aZU8dN17WNUPZfyEzKtG-19" vertex="1">
          <mxGeometry y="50" width="168" height="73" as="geometry" />
        </mxCell>
        <mxCell id="aZU8dN17WNUPZfyEzKtG-22" value="&amp;lt;&amp;lt;Interface&amp;gt;&amp;gt;&lt;br&gt;Loadable&amp;lt;T extends Car&amp;gt;" style="swimlane;fontStyle=1;align=center;verticalAlign=top;childLayout=stackLayout;horizontal=1;startSize=43;horizontalStack=0;resizeParent=1;resizeParentMax=0;resizeLast=0;collapsible=1;marginBottom=0;whiteSpace=wrap;html=1;" parent="1" vertex="1">
          <mxGeometry x="871" y="968" width="168" height="95" as="geometry" />
        </mxCell>
        <mxCell id="aZU8dN17WNUPZfyEzKtG-23" value="" style="line;strokeWidth=1;fillColor=none;align=left;verticalAlign=middle;spacingTop=-1;spacingLeft=3;spacingRight=3;rotatable=0;labelPosition=right;points=[];portConstraint=eastwest;strokeColor=inherit;" parent="aZU8dN17WNUPZfyEzKtG-22" vertex="1">
          <mxGeometry y="43" width="168" height="8" as="geometry" />
        </mxCell>
        <mxCell id="aZU8dN17WNUPZfyEzKtG-24" value="&lt;font style=&quot;font-size: 12px;&quot;&gt;~ load(T): void&lt;br&gt;&lt;span style=&quot;color: rgb(32, 33, 34); font-family: sans-serif; background-color: rgb(255, 255, 255);&quot;&gt;~ unload(): void&lt;br&gt;&lt;/span&gt;&lt;br&gt;&lt;/font&gt;" style="text;strokeColor=none;fillColor=none;align=left;verticalAlign=top;spacingLeft=4;spacingRight=4;overflow=hidden;rotatable=0;points=[[0,0.5],[1,0.5]];portConstraint=eastwest;whiteSpace=wrap;html=1;" parent="aZU8dN17WNUPZfyEzKtG-22" vertex="1">
          <mxGeometry y="51" width="168" height="44" as="geometry" />
        </mxCell>
        <mxCell id="aZU8dN17WNUPZfyEzKtG-25" value="&lt;p style=&quot;margin:0px;margin-top:4px;text-align:center;&quot;&gt;&lt;b&gt;CarPlatform&lt;/b&gt;&lt;/p&gt;&lt;hr size=&quot;1&quot;&gt;&lt;p style=&quot;margin:0px;margin-left:4px;&quot;&gt;- rampState: int&lt;/p&gt;&lt;hr size=&quot;1&quot;&gt;&lt;p style=&quot;margin:0px;margin-left:4px;&quot;&gt;+ CarPlatform()&lt;/p&gt;&lt;p style=&quot;margin:0px;margin-left:4px;&quot;&gt;+ raisePlatform(): void&lt;/p&gt;&lt;p style=&quot;margin:0px;margin-left:4px;&quot;&gt;+ lowerPlatform(): void&lt;br&gt;&lt;/p&gt;&lt;p style=&quot;margin:0px;margin-left:4px;&quot;&gt;+ platformInUse(): boolean&lt;br style=&quot;border-color: var(--border-color);&quot;&gt;+ getPlatformLevel(): double&lt;br&gt;&lt;/p&gt;" style="verticalAlign=top;align=left;overflow=fill;fontSize=12;fontFamily=Helvetica;html=1;whiteSpace=wrap;" parent="1" vertex="1">
          <mxGeometry x="1963" y="769.13" width="168" height="140.75" as="geometry" />
        </mxCell>
        <mxCell id="aZU8dN17WNUPZfyEzKtG-26" value="&lt;p style=&quot;margin:0px;margin-top:4px;text-align:center;&quot;&gt;&lt;b&gt;StandardPlatform&lt;/b&gt;&lt;/p&gt;&lt;hr size=&quot;1&quot;&gt;&lt;p style=&quot;margin:0px;margin-left:4px;&quot;&gt;- angleOfPlatform: double&lt;/p&gt;&lt;hr size=&quot;1&quot;&gt;&lt;p style=&quot;margin:0px;margin-left:4px;&quot;&gt;+ StandardPlatform()&lt;/p&gt;&lt;p style=&quot;margin:0px;margin-left:4px;&quot;&gt;+ raisePlatform(): void&lt;/p&gt;&lt;p style=&quot;margin:0px;margin-left:4px;&quot;&gt;+ lowerPlatform(): void&lt;br&gt;&lt;/p&gt;&lt;p style=&quot;margin:0px;margin-left:4px;&quot;&gt;+ platformInUse(): boolean&lt;br style=&quot;border-color: var(--border-color);&quot;&gt;+ changeAngleofPlatform(double): void&lt;br&gt;&lt;/p&gt;&lt;p style=&quot;margin:0px;margin-left:4px;&quot;&gt;+ getPlatformLevel(): double&lt;/p&gt;" style="verticalAlign=top;align=left;overflow=fill;fontSize=12;fontFamily=Helvetica;html=1;whiteSpace=wrap;" parent="1" vertex="1">
          <mxGeometry x="1672.25" y="955" width="225.5" height="148" as="geometry" />
        </mxCell>
        <mxCell id="aZU8dN17WNUPZfyEzKtG-28" value="" style="endArrow=block;dashed=1;endFill=0;endSize=12;html=1;rounded=0;exitX=0.5;exitY=0;exitDx=0;exitDy=0;entryX=0.499;entryY=1;entryDx=0;entryDy=0;entryPerimeter=0;" parent="1" source="aZU8dN17WNUPZfyEzKtG-26" target="aZU8dN17WNUPZfyEzKtG-21" edge="1">
          <mxGeometry width="160" relative="1" as="geometry">
            <mxPoint x="1467" y="1218" as="sourcePoint" />
            <mxPoint x="1785" y="893" as="targetPoint" />
            <Array as="points" />
          </mxGeometry>
        </mxCell>
        <mxCell id="aZU8dN17WNUPZfyEzKtG-29" value="&lt;p style=&quot;margin:0px;margin-top:4px;text-align:center;&quot;&gt;&lt;b&gt;Scania&lt;/b&gt;&lt;/p&gt;&lt;hr size=&quot;1&quot;&gt;&lt;p style=&quot;margin:0px;margin-left:4px;&quot;&gt;&lt;br&gt;&lt;/p&gt;&lt;hr size=&quot;1&quot;&gt;&lt;p style=&quot;margin:0px;margin-left:4px;&quot;&gt;+ Scania()&lt;/p&gt;&lt;p style=&quot;margin:0px;margin-left:4px;&quot;&gt;+ raisePlatform(double): void&lt;/p&gt;&lt;p style=&quot;margin:0px;margin-left:4px;&quot;&gt;+ lowerPlatform(double): void&lt;br&gt;&lt;/p&gt;&lt;p style=&quot;margin:0px;margin-left:4px;&quot;&gt;+ getPlatformAngle(): double&lt;/p&gt;" style="verticalAlign=top;align=left;overflow=fill;fontSize=12;fontFamily=Helvetica;html=1;whiteSpace=wrap;" parent="1" vertex="1">
          <mxGeometry x="1430.5" y="983" width="173" height="123" as="geometry" />
        </mxCell>
        <mxCell id="aZU8dN17WNUPZfyEzKtG-30" value="Extends" style="endArrow=block;endSize=16;endFill=0;html=1;rounded=0;entryX=0.5;entryY=1;entryDx=0;entryDy=0;exitX=0.5;exitY=0;exitDx=0;exitDy=0;" parent="1" source="aZU8dN17WNUPZfyEzKtG-29" target="aZU8dN17WNUPZfyEzKtG-9" edge="1">
          <mxGeometry width="160" relative="1" as="geometry">
            <mxPoint x="1616" y="812" as="sourcePoint" />
            <mxPoint x="1776" y="812" as="targetPoint" />
            <Array as="points" />
          </mxGeometry>
        </mxCell>
        <mxCell id="aZU8dN17WNUPZfyEzKtG-31" value="Use" style="endArrow=open;endSize=12;html=1;rounded=0;fontColor=none;noLabel=1;exitX=1;exitY=0.5;exitDx=0;exitDy=0;" parent="1" source="aZU8dN17WNUPZfyEzKtG-9" edge="1">
          <mxGeometry width="160" relative="1" as="geometry">
            <mxPoint x="1600" y="839" as="sourcePoint" />
            <mxPoint x="1702" y="845" as="targetPoint" />
            <Array as="points" />
          </mxGeometry>
        </mxCell>
        <mxCell id="aZU8dN17WNUPZfyEzKtG-32" value="&lt;p style=&quot;margin:0px;margin-top:4px;text-align:center;&quot;&gt;&lt;b&gt;CarTransport&lt;/b&gt;&lt;/p&gt;&lt;hr size=&quot;1&quot;&gt;&lt;p style=&quot;margin:0px;margin-left:4px;&quot;&gt;# maxCars: int&lt;/p&gt;&lt;p style=&quot;margin:0px;margin-left:4px;&quot;&gt;# loadedCars: List&amp;lt;Car&amp;gt;&lt;/p&gt;&lt;hr size=&quot;1&quot;&gt;&lt;p style=&quot;margin:0px;margin-left:4px;&quot;&gt;+ CarTransport(int)&lt;/p&gt;&lt;p style=&quot;margin:0px;margin-left:4px;&quot;&gt;+ move(): void&lt;/p&gt;&lt;p style=&quot;margin:0px;margin-left:4px;&quot;&gt;+ raisePlatform(): void&lt;br&gt;&lt;/p&gt;&lt;p style=&quot;margin:0px;margin-left:4px;&quot;&gt;+ lowerPlatform(): void&lt;br&gt;&lt;/p&gt;&lt;p style=&quot;margin:0px;margin-left:4px;&quot;&gt;+ load(Car): void&lt;/p&gt;&lt;p style=&quot;margin:0px;margin-left:4px;&quot;&gt;+ unload(): void&lt;/p&gt;" style="verticalAlign=top;align=left;overflow=fill;fontSize=12;fontFamily=Helvetica;html=1;whiteSpace=wrap;" parent="1" vertex="1">
          <mxGeometry x="1130.5" y="875" width="173" height="167" as="geometry" />
        </mxCell>
        <mxCell id="aZU8dN17WNUPZfyEzKtG-33" value="Extends" style="endArrow=block;endSize=16;endFill=0;html=1;rounded=0;entryX=0;entryY=0.5;entryDx=0;entryDy=0;exitX=0.5;exitY=0;exitDx=0;exitDy=0;" parent="1" source="aZU8dN17WNUPZfyEzKtG-32" target="aZU8dN17WNUPZfyEzKtG-9" edge="1">
          <mxGeometry width="160" relative="1" as="geometry">
            <mxPoint x="1858" y="867" as="sourcePoint" />
            <mxPoint x="2098" y="902" as="targetPoint" />
            <Array as="points">
              <mxPoint x="1217" y="845" />
            </Array>
          </mxGeometry>
        </mxCell>
        <mxCell id="aZU8dN17WNUPZfyEzKtG-36" value="" style="endArrow=block;dashed=1;endFill=0;endSize=12;html=1;rounded=0;entryX=1.001;entryY=0.166;entryDx=0;entryDy=0;entryPerimeter=0;exitX=0;exitY=0.5;exitDx=0;exitDy=0;" parent="1" source="aZU8dN17WNUPZfyEzKtG-25" target="aZU8dN17WNUPZfyEzKtG-21" edge="1">
          <mxGeometry width="160" relative="1" as="geometry">
            <mxPoint x="2104" y="840" as="sourcePoint" />
            <mxPoint x="1383" y="983" as="targetPoint" />
          </mxGeometry>
        </mxCell>
        <mxCell id="aZU8dN17WNUPZfyEzKtG-37" value="&lt;p style=&quot;margin:0px;margin-top:4px;text-align:center;&quot;&gt;&lt;b&gt;Workshop&amp;lt;T extends Car&amp;gt;&lt;/b&gt;&lt;/p&gt;&lt;hr size=&quot;1&quot;&gt;&lt;p style=&quot;margin:0px;margin-left:4px;&quot;&gt;# maxCars: int&lt;/p&gt;&lt;p style=&quot;margin:0px;margin-left:4px;&quot;&gt;# xPos: int&lt;/p&gt;&lt;p style=&quot;margin:0px;margin-left:4px;&quot;&gt;# yPos: int&lt;/p&gt;&lt;p style=&quot;margin:0px;margin-left:4px;&quot;&gt;- carsInShop: List&amp;lt;T&amp;gt;&lt;/p&gt;&lt;hr size=&quot;1&quot;&gt;&lt;p style=&quot;margin:0px;margin-left:4px;&quot;&gt;+ Workshop(int, int, int)&lt;/p&gt;&lt;p style=&quot;margin:0px;margin-left:4px;&quot;&gt;+ load(T): void&lt;/p&gt;&lt;p style=&quot;margin:0px;margin-left:4px;&quot;&gt;+ unload(): void&lt;/p&gt;&lt;p style=&quot;margin:0px;margin-left:4px;&quot;&gt;+ getNrCars(): int&lt;/p&gt;&lt;p style=&quot;margin:0px;margin-left:4px;&quot;&gt;+ nextCarToUnload(): T&lt;/p&gt;" style="verticalAlign=top;align=left;overflow=fill;fontSize=12;fontFamily=Helvetica;html=1;whiteSpace=wrap;" parent="1" vertex="1">
          <mxGeometry x="861.5" y="1133" width="187" height="180" as="geometry" />
        </mxCell>
        <mxCell id="aZU8dN17WNUPZfyEzKtG-38" value="" style="endArrow=block;dashed=1;endFill=0;endSize=12;html=1;rounded=0;exitX=0.5;exitY=0;exitDx=0;exitDy=0;entryX=0.494;entryY=0.954;entryDx=0;entryDy=0;entryPerimeter=0;" parent="1" source="aZU8dN17WNUPZfyEzKtG-37" target="aZU8dN17WNUPZfyEzKtG-24" edge="1">
          <mxGeometry width="160" relative="1" as="geometry">
            <mxPoint x="961" y="1133" as="sourcePoint" />
            <mxPoint x="925" y="1065" as="targetPoint" />
          </mxGeometry>
        </mxCell>
        <mxCell id="aZU8dN17WNUPZfyEzKtG-40" value="" style="endArrow=block;dashed=1;endFill=0;endSize=12;html=1;rounded=0;entryX=1;entryY=0.5;entryDx=0;entryDy=0;" parent="1" target="aZU8dN17WNUPZfyEzKtG-22" edge="1">
          <mxGeometry width="160" relative="1" as="geometry">
            <mxPoint x="1129" y="1016" as="sourcePoint" />
            <mxPoint x="1007" y="1084" as="targetPoint" />
          </mxGeometry>
        </mxCell>
        <mxCell id="aZU8dN17WNUPZfyEzKtG-42" value="Use" style="endArrow=open;endSize=12;dashed=1;html=1;rounded=0;entryX=0.75;entryY=1;entryDx=0;entryDy=0;exitX=0;exitY=0.25;exitDx=0;exitDy=0;fontColor=none;noLabel=1;" parent="1" source="aZU8dN17WNUPZfyEzKtG-32" target="aZU8dN17WNUPZfyEzKtG-8" edge="1">
          <mxGeometry width="160" relative="1" as="geometry">
            <mxPoint x="950" y="965" as="sourcePoint" />
            <mxPoint x="1110" y="965" as="targetPoint" />
            <Array as="points">
              <mxPoint x="931" y="917" />
            </Array>
          </mxGeometry>
        </mxCell>
        <mxCell id="aZU8dN17WNUPZfyEzKtG-43" value="Use" style="endArrow=open;endSize=12;dashed=1;html=1;rounded=0;entryX=0.25;entryY=1;entryDx=0;entryDy=0;exitX=0;exitY=0.25;exitDx=0;exitDy=0;fontColor=none;noLabel=1;" parent="1" source="aZU8dN17WNUPZfyEzKtG-37" target="aZU8dN17WNUPZfyEzKtG-8" edge="1">
          <mxGeometry width="160" relative="1" as="geometry">
            <mxPoint x="1135" y="1021" as="sourcePoint" />
            <mxPoint x="925" y="877" as="targetPoint" />
            <Array as="points">
              <mxPoint x="840" y="1177" />
            </Array>
          </mxGeometry>
        </mxCell>
        <mxCell id="aZU8dN17WNUPZfyEzKtG-45" value="Use" style="endArrow=open;endSize=12;dashed=1;html=1;rounded=0;exitX=0.999;exitY=0.612;exitDx=0;exitDy=0;fontColor=none;noLabel=1;exitPerimeter=0;entryX=-0.003;entryY=0.696;entryDx=0;entryDy=0;entryPerimeter=0;" parent="1" source="aZU8dN17WNUPZfyEzKtG-29" target="aZU8dN17WNUPZfyEzKtG-26" edge="1">
          <mxGeometry width="160" relative="1" as="geometry">
            <mxPoint x="1781" y="1170" as="sourcePoint" />
            <mxPoint x="1693" y="1058" as="targetPoint" />
            <Array as="points" />
          </mxGeometry>
        </mxCell>
        <mxCell id="aZU8dN17WNUPZfyEzKtG-46" value="Use" style="endArrow=open;endSize=12;dashed=1;html=1;rounded=0;entryX=0.5;entryY=1;entryDx=0;entryDy=0;exitX=0.5;exitY=1;exitDx=0;exitDy=0;fontColor=none;noLabel=1;" parent="1" source="aZU8dN17WNUPZfyEzKtG-32" target="aZU8dN17WNUPZfyEzKtG-25" edge="1">
          <mxGeometry width="160" relative="1" as="geometry">
            <mxPoint x="1613" y="1039" as="sourcePoint" />
            <mxPoint x="1701" y="1040" as="targetPoint" />
            <Array as="points">
              <mxPoint x="1217" y="1149" />
              <mxPoint x="2047" y="1149" />
            </Array>
          </mxGeometry>
        </mxCell>
        <mxCell id="aZU8dN17WNUPZfyEzKtG-56" value="&lt;p style=&quot;margin:0px;margin-top:4px;text-align:center;&quot;&gt;&lt;b&gt;CarView&lt;/b&gt;&lt;/p&gt;&lt;hr size=&quot;1&quot;&gt;&lt;p style=&quot;margin:0px;margin-left:4px;&quot;&gt;&lt;u&gt;# X: int&lt;/u&gt;&lt;/p&gt;&lt;p style=&quot;margin:0px;margin-left:4px;&quot;&gt;&lt;u style=&quot;border-color: var(--border-color);&quot;&gt;# Y: int&lt;/u&gt;&lt;u&gt;&lt;br&gt;&lt;/u&gt;&lt;/p&gt;&lt;p style=&quot;border-color: var(--border-color); margin: 0px 0px 0px 4px;&quot;&gt;- delay: int&lt;/p&gt;&lt;p style=&quot;margin:0px;margin-left:4px;&quot;&gt;&lt;u style=&quot;border-color: var(--border-color);&quot;&gt;&lt;/u&gt;&lt;/p&gt;&lt;p style=&quot;border-color: var(--border-color); margin: 0px 0px 0px 4px;&quot;&gt;- timer: Timer&lt;/p&gt;&lt;p style=&quot;margin:0px;margin-left:4px;&quot;&gt;&lt;span style=&quot;border-color: var(--border-color);&quot;&gt;# mc: ModelController&lt;/span&gt;&lt;/p&gt;&lt;p style=&quot;margin:0px;margin-left:4px;&quot;&gt;&lt;span style=&quot;border-color: var(--border-color);&quot;&gt;# dp: DrawPanel&lt;/span&gt;&lt;/p&gt;&lt;p style=&quot;margin:0px;margin-left:4px;&quot;&gt;&lt;span style=&quot;border-color: var(--border-color);&quot;&gt;# gasAmount: int&lt;/span&gt;&lt;/p&gt;&lt;hr size=&quot;1&quot;&gt;&lt;p style=&quot;margin:0px;margin-left:4px;&quot;&gt;&lt;span style=&quot;background-color: initial;&quot;&gt;- initComponents(String, CarController): void&lt;/span&gt;&lt;br&gt;&lt;/p&gt;&lt;p style=&quot;margin:0px;margin-left:4px;&quot;&gt;&lt;br&gt;&lt;/p&gt;" style="verticalAlign=top;align=left;overflow=fill;fontSize=12;fontFamily=Helvetica;html=1;whiteSpace=wrap;" parent="1" vertex="1">
          <mxGeometry x="260" y="1589.25" width="248" height="165.5" as="geometry" />
        </mxCell>
        <mxCell id="aZU8dN17WNUPZfyEzKtG-49" value="&lt;p style=&quot;margin:0px;margin-top:4px;text-align:center;&quot;&gt;&lt;b&gt;DrawPanel&lt;/b&gt;&lt;/p&gt;&lt;hr size=&quot;1&quot;&gt;&lt;p style=&quot;margin:0px;margin-left:4px;&quot;&gt;# mc: ModelController&lt;/p&gt;&lt;br&gt;&lt;hr size=&quot;1&quot;&gt;&lt;p style=&quot;margin:0px;margin-left:4px;&quot;&gt;+ DrawPanel(int, int, ModelController)&lt;/p&gt;&lt;p style=&quot;margin:0px;margin-left:4px;&quot;&gt;# paintComponent(Graphics): void&lt;/p&gt;&lt;p style=&quot;margin:0px;margin-left:4px;&quot;&gt;&lt;br&gt;&lt;/p&gt;" style="verticalAlign=top;align=left;overflow=fill;fontSize=12;fontFamily=Helvetica;html=1;whiteSpace=wrap;" parent="1" vertex="1">
          <mxGeometry x="624" y="1612" width="225" height="120" as="geometry" />
        </mxCell>
        <mxCell id="JySgHseiIammfX6t4QCN-14" value="&lt;p style=&quot;margin:0px;margin-top:4px;text-align:center;&quot;&gt;&lt;b&gt;ModelController&lt;/b&gt;&lt;/p&gt;&lt;hr size=&quot;1&quot;&gt;&lt;p style=&quot;margin:0px;margin-left:4px;&quot;&gt;+ components: Dict&lt;/p&gt;&lt;hr size=&quot;1&quot;&gt;&lt;p style=&quot;border-color: var(--border-color); margin: 0px 0px 0px 4px;&quot;&gt;# ModelController()&lt;/p&gt;&lt;p style=&quot;border-color: var(--border-color); margin: 0px 0px 0px 4px;&quot;&gt;- checkLoadWorkshop(Car): boolean&lt;/p&gt;&lt;p style=&quot;border-color: var(--border-color); margin: 0px 0px 0px 4px;&quot;&gt;# gas(int): void&lt;/p&gt;&lt;p style=&quot;border-color: var(--border-color); margin: 0px 0px 0px 4px;&quot;&gt;# break(int): void&lt;/p&gt;" style="verticalAlign=top;align=left;overflow=fill;fontSize=12;fontFamily=Helvetica;html=1;whiteSpace=wrap;" parent="1" vertex="1">
          <mxGeometry x="512.5" y="1332" width="221" height="123" as="geometry" />
        </mxCell>
        <mxCell id="JySgHseiIammfX6t4QCN-15" value="Use" style="endArrow=open;endSize=12;html=1;rounded=0;fontColor=none;noLabel=1;exitX=0.5;exitY=0;exitDx=0;exitDy=0;entryX=0.5;entryY=1;entryDx=0;entryDy=0;dashed=1;" parent="1" source="JySgHseiIammfX6t4QCN-14" target="aZU8dN17WNUPZfyEzKtG-16" edge="1">
          <mxGeometry width="160" relative="1" as="geometry">
            <mxPoint x="1646" y="855" as="sourcePoint" />
            <mxPoint x="1712" y="855" as="targetPoint" />
            <Array as="points" />
          </mxGeometry>
        </mxCell>
        <mxCell id="JySgHseiIammfX6t4QCN-16" value="Use" style="endArrow=open;endSize=12;html=1;rounded=0;fontColor=none;noLabel=1;exitX=0;exitY=0.25;exitDx=0;exitDy=0;entryX=0;entryY=0.5;entryDx=0;entryDy=0;dashed=1;" parent="1" source="JySgHseiIammfX6t4QCN-14" target="aZU8dN17WNUPZfyEzKtG-15" edge="1">
          <mxGeometry width="160" relative="1" as="geometry">
            <mxPoint x="1522" y="362" as="sourcePoint" />
            <mxPoint x="553" y="1047" as="targetPoint" />
            <Array as="points">
              <mxPoint x="490" y="1363" />
              <mxPoint x="490" y="696" />
            </Array>
          </mxGeometry>
        </mxCell>
        <mxCell id="JySgHseiIammfX6t4QCN-17" value="Use" style="endArrow=open;endSize=12;html=1;rounded=0;fontColor=none;noLabel=1;exitX=1;exitY=0.25;exitDx=0;exitDy=0;entryX=0.5;entryY=1;entryDx=0;entryDy=0;dashed=1;" parent="1" source="JySgHseiIammfX6t4QCN-14" target="aZU8dN17WNUPZfyEzKtG-37" edge="1">
          <mxGeometry width="160" relative="1" as="geometry">
            <mxPoint x="1646" y="855" as="sourcePoint" />
            <mxPoint x="1742" y="690" as="targetPoint" />
            <Array as="points">
              <mxPoint x="955" y="1363" />
            </Array>
          </mxGeometry>
        </mxCell>
        <mxCell id="JySgHseiIammfX6t4QCN-18" value="Use" style="endArrow=open;endSize=12;html=1;rounded=0;fontColor=none;noLabel=1;exitX=1;exitY=0.75;exitDx=0;exitDy=0;entryX=0.5;entryY=1;entryDx=0;entryDy=0;dashed=1;" parent="1" source="JySgHseiIammfX6t4QCN-14" target="aZU8dN17WNUPZfyEzKtG-29" edge="1">
          <mxGeometry width="160" relative="1" as="geometry">
            <mxPoint x="1646" y="855" as="sourcePoint" />
            <mxPoint x="1712" y="855" as="targetPoint" />
            <Array as="points">
              <mxPoint x="1517" y="1424" />
            </Array>
          </mxGeometry>
        </mxCell>
        <mxCell id="JySgHseiIammfX6t4QCN-19" value="Use" style="endArrow=open;endSize=12;html=1;rounded=0;fontColor=none;noLabel=1;entryX=0.25;entryY=1;entryDx=0;entryDy=0;exitX=1;exitY=0.5;exitDx=0;exitDy=0;dashed=1;" parent="1" source="JySgHseiIammfX6t4QCN-14" target="aZU8dN17WNUPZfyEzKtG-32" edge="1">
          <mxGeometry width="160" relative="1" as="geometry">
            <mxPoint x="705" y="1399" as="sourcePoint" />
            <mxPoint x="1570" y="1116" as="targetPoint" />
            <Array as="points">
              <mxPoint x="1174" y="1394" />
            </Array>
          </mxGeometry>
        </mxCell>
        <mxCell id="JySgHseiIammfX6t4QCN-20" value="Use" style="endArrow=open;endSize=12;html=1;rounded=0;fontColor=none;noLabel=1;exitX=0.5;exitY=0;exitDx=0;exitDy=0;entryX=0;entryY=0.75;entryDx=0;entryDy=0;" parent="1" source="aZU8dN17WNUPZfyEzKtG-56" target="JySgHseiIammfX6t4QCN-14" edge="1">
          <mxGeometry width="160" relative="1" as="geometry">
            <mxPoint x="383.6" y="1583" as="sourcePoint" />
            <mxPoint x="383.6" y="1324" as="targetPoint" />
            <Array as="points">
              <mxPoint x="384" y="1424" />
            </Array>
          </mxGeometry>
        </mxCell>
        <mxCell id="JySgHseiIammfX6t4QCN-21" value="Use" style="endArrow=open;endSize=12;html=1;rounded=0;fontColor=none;noLabel=1;exitX=0.25;exitY=0;exitDx=0;exitDy=0;entryX=0.75;entryY=1;entryDx=0;entryDy=0;" parent="1" source="aZU8dN17WNUPZfyEzKtG-49" target="JySgHseiIammfX6t4QCN-14" edge="1">
          <mxGeometry width="160" relative="1" as="geometry">
            <mxPoint x="394" y="1607" as="sourcePoint" />
            <mxPoint x="523" y="1448" as="targetPoint" />
            <Array as="points" />
          </mxGeometry>
        </mxCell>
        <mxCell id="JySgHseiIammfX6t4QCN-23" value="Use" style="endArrow=open;endSize=12;html=1;rounded=0;fontColor=none;noLabel=1;exitX=1;exitY=0.5;exitDx=0;exitDy=0;entryX=0;entryY=0.5;entryDx=0;entryDy=0;" parent="1" source="aZU8dN17WNUPZfyEzKtG-56" target="aZU8dN17WNUPZfyEzKtG-49" edge="1">
          <mxGeometry width="160" relative="1" as="geometry">
            <mxPoint x="690" y="1622" as="sourcePoint" />
            <mxPoint x="688" y="1483" as="targetPoint" />
            <Array as="points" />
          </mxGeometry>
        </mxCell>
        <mxCell id="WGN6Dyu8FlR9xE58hyVP-1" value="&lt;p style=&quot;margin:0px;margin-top:4px;text-align:center;&quot;&gt;&lt;b&gt;Application&lt;/b&gt;&lt;/p&gt;&lt;hr size=&quot;1&quot;&gt;&lt;p style=&quot;margin:0px;margin-left:4px;&quot;&gt;# cw: CarView&lt;/p&gt;&lt;br&gt;&lt;hr size=&quot;1&quot;&gt;&lt;p style=&quot;margin:0px;margin-left:4px;&quot;&gt;+&amp;nbsp;&lt;u style=&quot;border-color: var(--border-color);&quot;&gt;main(String[]): void&lt;/u&gt;&lt;br&gt;&lt;/p&gt;&lt;p style=&quot;margin:0px;margin-left:4px;&quot;&gt;&lt;br&gt;&lt;/p&gt;" style="verticalAlign=top;align=left;overflow=fill;fontSize=12;fontFamily=Helvetica;html=1;whiteSpace=wrap;" vertex="1" parent="1">
          <mxGeometry x="271.5" y="1854" width="225" height="98" as="geometry" />
        </mxCell>
        <mxCell id="WGN6Dyu8FlR9xE58hyVP-2" value="Use" style="endArrow=open;endSize=12;html=1;rounded=0;fontColor=none;noLabel=1;exitX=0.5;exitY=0;exitDx=0;exitDy=0;entryX=0.5;entryY=1;entryDx=0;entryDy=0;" edge="1" parent="1" source="WGN6Dyu8FlR9xE58hyVP-1" target="aZU8dN17WNUPZfyEzKtG-56">
          <mxGeometry width="160" relative="1" as="geometry">
            <mxPoint x="690" y="1622" as="sourcePoint" />
            <mxPoint x="688" y="1465" as="targetPoint" />
            <Array as="points" />
          </mxGeometry>
        </mxCell>
      </root>
    </mxGraphModel>
  </diagram>
</mxfile>
